<svg xmlns="http://www.w3.org/2000/svg" viewBox="0 0 1250 1250"> <path fill="#FFFFFF" stroke="none" d="M689,1251C459.333,1251,230.167,1251,1,1251C1,834.333,1,417.667,1,1C417.667,1,834.333,1,1251,1C1251,417.667,1251,834.333,1251,1251C1063.833,1251,876.667,1251,689,1251M402.874,618.118C401.042,618.141,399.21,618.186,397.378,618.183C342.895,618.111,288.412,617.949,233.93,618.091C228.415,618.105,222.431,618.908,217.483,621.151C203.738,627.381,197.138,638.673,197.125,653.818C197.037,757.618,196.926,861.419,196.831,965.219C196.829,967.384,196.675,969.593,197.041,971.703C197.538,974.567,198.046,977.558,199.286,980.14C206.154,994.435,217.41,1001.182,233.524,1001.134C293.837,1000.954,354.152,1001.152,414.466,1001.288C454.783,1001.379,495.101,1001.638,535.418,1001.748C547.173,1001.779,556.727,997.067,563.824,987.649C569.294,980.39,570.712,971.989,570.716,963.116C570.738,906.468,570.842,849.82,571.859,793.05C591.195,793.113,610.531,793.175,629.86,794.144C629.624,822.955,629.301,851.764,629.176,880.575C629.049,909.739,629.021,938.904,629.139,968.068C629.201,983.568,640.396,997.316,655.648,1000.93C658.686,1001.649,661.894,1001.926,665.025,1001.929C771.35,1002.029,877.675,1002.104,983.999,1002.021C988.87,1002.018,994.131,1001.446,998.537,999.562C1013.145,993.317,1019.791,981.283,1019.817,965.855C1019.998,862.03,1019.992,758.205,1020.017,654.379C1020.018,651.898,1019.964,649.353,1019.444,646.943C1015.789,630.024,1002.21,619.147,984.65,619.119C925.822,619.026,866.993,618.99,808.034,618.011C808.079,601.353,808.125,584.694,809.085,568.019C868.914,568.022,928.743,568.049,988.572,568.009C1004.033,567.998,1019.675,553.092,1019.988,538.046C1020.41,517.752,1020.892,497.455,1020.917,477.159C1021.026,389.832,1020.99,302.504,1020.942,215.177C1020.94,211.384,1020.582,207.542,1019.91,203.81C1017.59,190.938,1003.371,178.28,991.011,177.993C974.884,177.619,958.754,177.096,942.624,177.079C849.631,176.982,756.636,176.918,663.643,177.089C645.343,177.123,630.879,193.22,630.867,209.975C630.822,269.102,630.336,328.228,630.015,387.355C630.013,387.854,629.986,388.354,629.045,388.982C610.049,388.961,591.053,388.94,571.865,388.008C571.875,329.681,571.904,271.354,571.883,213.026C571.875,191.48,557.359,177.006,535.93,176.923C481.115,176.711,426.299,176.395,371.484,176.239C325.155,176.107,278.826,176.1,232.496,176.121C213.85,176.13,198.115,191.21,198.058,209.315C197.719,316.125,197.439,422.936,197.309,529.746C197.303,534.966,197.948,540.584,199.929,545.333C205.802,559.415,216.774,566.949,232.197,566.991C289.357,567.144,346.518,567.143,403.85,568.098C403.825,584.758,403.801,601.418,402.874,618.118Z"/> <path fill="#29423E" stroke="none" d="M808.17,568.036C808.125,584.694,808.079,601.353,808.024,618.939C808.009,653.524,807.775,687.184,808.114,720.838C808.246,733.934,806.97,746.696,803.688,759.341C800.847,770.284,794.901,778.814,784.571,783.592C778.108,786.581,771.31,788.96,764.481,791.005C760.27,792.266,755.722,792.883,751.317,792.927C731.324,793.129,711.329,793,691.334,793.037C670.845,793.075,650.356,793.168,629.866,793.237C610.531,793.175,591.195,793.113,570.937,793.042C533.367,793.025,496.719,793.122,460.072,792.957C443.658,792.884,430.11,785.803,419.152,774.007C408.511,762.553,403.766,748.782,403.853,733.003C404.066,694.696,403.831,656.386,403.777,618.077C403.801,601.418,403.825,584.758,403.857,567.175C403.888,526.757,404.349,487.255,403.791,447.768C403.384,419.015,427.425,388.884,463.076,388.974C499.403,389.065,535.73,388.946,572.057,388.919C591.053,388.94,610.049,388.961,629.973,388.988C670.043,388.996,709.185,388.89,748.325,389.121C753.987,389.154,759.818,390.217,765.252,391.859C772.02,393.905,778.578,396.788,785.008,399.779C794.417,404.155,801.27,411.451,803.349,421.567C805.714,433.084,807.608,444.905,807.798,456.625C808.401,493.754,808.113,530.898,808.17,568.036Z"/> <path fill="#E2DFD9" stroke="none" d="M808.628,568.028C808.113,530.898,808.401,493.754,807.798,456.625C807.608,444.905,805.714,433.084,803.349,421.567C801.27,411.451,794.417,404.155,785.008,399.779C778.578,396.788,772.02,393.905,765.252,391.859C759.818,390.217,753.987,389.154,748.325,389.121C709.185,388.89,670.043,388.996,630.436,388.924C629.986,388.354,630.013,387.854,630.015,387.355C630.336,328.228,630.822,269.102,630.867,209.975C630.879,193.22,645.343,177.123,663.643,177.089C756.636,176.918,849.631,176.982,942.624,177.079C958.754,177.096,974.884,177.619,991.011,177.993C1003.371,178.28,1017.59,190.938,1019.91,203.81C1020.582,207.542,1020.94,211.384,1020.942,215.177C1020.99,302.504,1021.026,389.832,1020.917,477.159C1020.892,497.455,1020.41,517.752,1019.988,538.046C1019.675,553.092,1004.033,567.998,988.572,568.009C928.743,568.049,868.914,568.022,808.628,568.028Z"/> <path fill="#DFB3A5" stroke="none" d="M629.863,793.691C650.356,793.168,670.845,793.075,691.334,793.037C711.329,793,731.324,793.129,751.317,792.927C755.722,792.883,760.27,792.266,764.481,791.005C771.31,788.96,778.108,786.581,784.571,783.592C794.901,778.814,800.847,770.284,803.688,759.341C806.97,746.696,808.246,733.934,808.114,720.838C807.775,687.184,808.009,653.524,808.089,619.399C866.993,618.99,925.822,619.026,984.65,619.119C1002.21,619.147,1015.789,630.024,1019.444,646.943C1019.964,649.353,1020.018,651.898,1020.017,654.379C1019.992,758.205,1019.998,862.03,1019.817,965.855C1019.791,981.283,1013.145,993.317,998.537,999.562C994.131,1001.446,988.87,1002.018,983.999,1002.021C877.675,1002.104,771.35,1002.029,665.025,1001.929C661.894,1001.926,658.686,1001.649,655.648,1000.93C640.396,997.316,629.201,983.568,629.139,968.068C629.021,938.904,629.049,909.739,629.176,880.575C629.301,851.764,629.624,822.955,629.863,793.691Z"/> <path fill="#9AAFAA" stroke="none" d="M571.961,388.463C535.73,388.946,499.403,389.065,463.076,388.974C427.425,388.884,403.384,419.015,403.791,447.768C404.349,487.255,403.888,526.757,403.771,566.726C346.518,567.144,289.357,567.144,232.197,566.991C216.774,566.949,205.802,559.415,199.929,545.333C197.948,540.584,197.303,534.966,197.309,529.746C197.439,422.936,197.719,316.125,198.058,209.315C198.115,191.21,213.85,176.13,232.496,176.121C278.826,176.1,325.155,176.107,371.484,176.239C426.299,176.395,481.115,176.711,535.93,176.923C557.359,177.006,571.875,191.48,571.883,213.026C571.904,271.354,571.875,329.681,571.961,388.463Z"/> <path fill="#B3AA3B" stroke="none" d="M403.325,618.097C403.831,656.386,404.066,694.696,403.853,733.003C403.766,748.782,408.511,762.553,419.152,774.007C430.11,785.803,443.658,792.884,460.072,792.957C496.719,793.122,533.367,793.025,570.466,793.103C570.842,849.82,570.738,906.468,570.716,963.116C570.712,971.989,569.294,980.39,563.824,987.649C556.727,997.067,547.173,1001.779,535.418,1001.748C495.101,1001.638,454.783,1001.379,414.466,1001.288C354.152,1001.152,293.837,1000.954,233.524,1001.134C217.41,1001.182,206.154,994.435,199.286,980.14C198.046,977.558,197.538,974.567,197.041,971.703C196.675,969.593,196.829,967.384,196.831,965.219C196.926,861.419,197.037,757.618,197.125,653.818C197.138,638.673,203.738,627.381,217.483,621.151C222.431,618.908,228.415,618.105,233.93,618.091C288.412,617.949,342.895,618.111,397.378,618.183C399.21,618.186,401.042,618.141,403.325,618.097Z"/> </svg>