<svg version="1.1" id="Layer_1" xmlns="http://www.w3.org/2000/svg" xmlns:xlink="http://www.w3.org/1999/xlink" x="0px" y="0px"
	 width="100%" viewBox="0 0 1250 1250" enable-background="new 0 0 1250 1250" xml:space="preserve">
<path fill="#FFFFFF" opacity="1.000000" stroke="none" 
	d="
M689.000000,1251.000000 
	C459.333344,1251.000000 230.166672,1251.000000 1.000000,1251.000000 
	C1.000000,834.333313 1.000000,417.666656 1.000000,1.000000 
	C417.666656,1.000000 834.333313,1.000000 1251.000000,1.000000 
	C1251.000000,417.666656 1251.000000,834.333313 1251.000000,1251.000000 
	C1063.833374,1251.000000 876.666687,1251.000000 689.000000,1251.000000 
M402.873871,618.117554 
	C401.041870,618.140625 399.209808,618.185852 397.377838,618.183472 
	C342.895081,618.111450 288.412140,617.948547 233.929947,618.090576 
	C228.414886,618.104980 222.430573,618.907593 217.482727,621.150513 
	C203.737869,627.381104 197.137573,638.673279 197.124710,653.817505 
	C197.036621,757.617981 196.926178,861.418518 196.831268,965.218994 
	C196.829285,967.384033 196.674500,969.593079 197.040955,971.703491 
	C197.538101,974.566650 198.045609,977.558289 199.286240,980.140442 
	C206.154205,994.435120 217.410431,1001.181763 233.523590,1001.133728 
	C293.837067,1000.953918 354.151825,1001.152039 414.465942,1001.287842 
	C454.783478,1001.378601 495.100677,1001.638000 535.418213,1001.747498 
	C547.172913,1001.779419 556.726929,997.067261 563.823975,987.649292 
	C569.294067,980.390381 570.712341,971.989197 570.715820,963.116089 
	C570.737976,906.467773 570.841736,849.819519 571.859192,793.050110 
	C591.194885,793.112549 610.530518,793.174927 629.859863,794.144287 
	C629.623779,822.954590 629.301270,851.764465 629.175842,880.575256 
	C629.048828,909.739197 629.020752,938.904297 629.138550,968.068176 
	C629.201172,983.568054 640.395508,997.315979 655.648438,1000.929565 
	C658.685547,1001.649109 661.894470,1001.926025 665.024658,1001.929016 
	C771.349731,1002.029480 877.674866,1002.103821 983.999939,1002.021423 
	C988.870117,1002.017639 994.131470,1001.445557 998.536865,999.562073 
	C1013.144958,993.316528 1019.790588,981.282715 1019.817383,965.855286 
	C1019.997925,862.030212 1019.992249,758.204773 1020.017273,654.379456 
	C1020.017883,651.897522 1019.963989,649.352722 1019.443665,646.943481 
	C1015.789368,630.024231 1002.210022,619.147156 984.650146,619.119385 
	C925.821655,619.026184 866.992981,618.989868 808.033630,618.011047 
	C808.079102,601.352722 808.124573,584.694397 809.085327,568.019470 
	C868.914368,568.021545 928.743408,568.048645 988.572449,568.008545 
	C1004.032532,567.998169 1019.675293,553.091675 1019.988037,538.045898 
	C1020.409851,517.752380 1020.891785,497.455322 1020.917114,477.159241 
	C1021.025940,389.831757 1020.989929,302.504089 1020.942139,215.176514 
	C1020.940063,211.384476 1020.582275,207.542358 1019.909729,203.810150 
	C1017.590027,190.937546 1003.370728,178.279907 991.011475,177.993134 
	C974.883728,177.618927 958.753784,177.095963 942.624329,177.079163 
	C849.630554,176.982346 756.636414,176.918320 663.642883,177.089066 
	C645.342529,177.122665 630.879333,193.220383 630.866699,209.975250 
	C630.822205,269.101868 630.335876,328.228180 630.015259,387.354584 
	C630.012573,387.854340 629.985901,388.353943 629.044678,388.982330 
	C610.048950,388.961060 591.053162,388.939819 571.865417,388.008026 
	C571.874695,329.680817 571.903564,271.353577 571.882874,213.026367 
	C571.875244,191.480194 557.358887,177.005997 535.930298,176.922958 
	C481.114685,176.710556 426.299438,176.395187 371.483704,176.239120 
	C325.154877,176.107224 278.825531,176.099945 232.496490,176.121384 
	C213.850357,176.130020 198.115448,191.209915 198.057953,209.315079 
	C197.718781,316.125336 197.438705,422.935852 197.309479,529.746460 
	C197.303177,534.965759 197.948334,540.583923 199.928940,545.332764 
	C205.802216,559.415039 216.774017,566.949036 232.196671,566.990479 
	C289.357300,567.143860 346.518341,567.143188 403.849579,568.098083 
	C403.825256,584.757812 403.800964,601.417603 402.873871,618.117554 
z"/>
<path fill="#29423E" opacity="1.000000" stroke="none" 
	d="
M808.170044,568.036072 
	C808.124573,584.694397 808.079102,601.352722 808.023804,618.938965 
	C808.009094,653.524353 807.775269,687.184082 808.114441,720.838074 
	C808.246460,733.934143 806.970337,746.696350 803.687866,759.341431 
	C800.847351,770.283691 794.900818,778.814392 784.571472,783.591858 
	C778.107910,786.581299 771.310364,788.960266 764.480652,791.005249 
	C760.270142,792.265930 755.722107,792.882629 751.316895,792.927002 
	C731.324341,793.128723 711.328613,792.999512 691.334167,793.036804 
	C670.844788,793.075012 650.355530,793.168213 629.866211,793.237366 
	C610.530518,793.174927 591.194885,793.112549 570.936584,793.042480 
	C533.366699,793.025085 496.718903,793.121521 460.072296,792.957214 
	C443.658325,792.883606 430.109528,785.803345 419.151611,774.007202 
	C408.510986,762.552673 403.765656,748.782104 403.853271,733.003052 
	C404.066040,694.695801 403.831177,656.386047 403.776642,618.077332 
	C403.800964,601.417603 403.825256,584.757812 403.856567,567.175171 
	C403.887909,526.756836 404.349457,487.255096 403.790619,447.767853 
	C403.383698,419.014587 427.424866,388.884186 463.076447,388.973785 
	C499.403168,389.065094 535.730408,388.945709 572.057434,388.918579 
	C591.053162,388.939819 610.048950,388.961060 629.973389,388.988251 
	C670.043213,388.996124 709.184937,388.889648 748.324707,389.120575 
	C753.986938,389.153961 759.817932,390.216583 765.251526,391.859161 
	C772.019775,393.905273 778.577515,396.788086 785.007935,399.778748 
	C794.417175,404.154785 801.270447,411.451141 803.348511,421.567200 
	C805.714355,433.084351 807.607544,444.904877 807.797791,456.624512 
	C808.400513,493.753937 808.113159,530.897827 808.170044,568.036072 
z"/>
<path fill="#E2DFD9" opacity="1.000000" stroke="none" 
	d="
M808.627686,568.027771 
	C808.113159,530.897827 808.400513,493.753937 807.797791,456.624512 
	C807.607544,444.904877 805.714355,433.084351 803.348511,421.567200 
	C801.270447,411.451141 794.417175,404.154785 785.007935,399.778748 
	C778.577515,396.788086 772.019775,393.905273 765.251526,391.859161 
	C759.817932,390.216583 753.986938,389.153961 748.324707,389.120575 
	C709.184937,388.889648 670.043213,388.996124 630.436279,388.923889 
	C629.985901,388.353943 630.012573,387.854340 630.015259,387.354584 
	C630.335876,328.228180 630.822205,269.101868 630.866699,209.975250 
	C630.879333,193.220383 645.342529,177.122665 663.642883,177.089066 
	C756.636414,176.918320 849.630554,176.982346 942.624329,177.079163 
	C958.753784,177.095963 974.883728,177.618927 991.011475,177.993134 
	C1003.370728,178.279907 1017.590027,190.937546 1019.909729,203.810150 
	C1020.582275,207.542358 1020.940063,211.384476 1020.942139,215.176514 
	C1020.989929,302.504089 1021.025940,389.831757 1020.917114,477.159241 
	C1020.891785,497.455322 1020.409851,517.752380 1019.988037,538.045898 
	C1019.675293,553.091675 1004.032532,567.998169 988.572449,568.008545 
	C928.743408,568.048645 868.914368,568.021545 808.627686,568.027771 
z"/>
<path fill="#DFB3A5" opacity="1.000000" stroke="none" 
	d="
M629.863037,793.690796 
	C650.355530,793.168213 670.844788,793.075012 691.334167,793.036804 
	C711.328613,792.999512 731.324341,793.128723 751.316895,792.927002 
	C755.722107,792.882629 760.270142,792.265930 764.480652,791.005249 
	C771.310364,788.960266 778.107910,786.581299 784.571472,783.591858 
	C794.900818,778.814392 800.847351,770.283691 803.687866,759.341431 
	C806.970337,746.696350 808.246460,733.934143 808.114441,720.838074 
	C807.775269,687.184082 808.009094,653.524353 808.089233,619.399292 
	C866.992981,618.989868 925.821655,619.026184 984.650146,619.119385 
	C1002.210022,619.147156 1015.789368,630.024231 1019.443665,646.943481 
	C1019.963989,649.352722 1020.017883,651.897522 1020.017273,654.379456 
	C1019.992249,758.204773 1019.997925,862.030212 1019.817383,965.855286 
	C1019.790588,981.282715 1013.144958,993.316528 998.536865,999.562073 
	C994.131470,1001.445557 988.870117,1002.017639 983.999939,1002.021423 
	C877.674866,1002.103821 771.349731,1002.029480 665.024658,1001.929016 
	C661.894470,1001.926025 658.685547,1001.649109 655.648438,1000.929565 
	C640.395508,997.315979 629.201172,983.568054 629.138550,968.068176 
	C629.020752,938.904297 629.048828,909.739197 629.175842,880.575256 
	C629.301270,851.764465 629.623779,822.954590 629.863037,793.690796 
z"/>
<path fill="#9AAFAA" opacity="1.000000" stroke="none" 
	d="
M571.961426,388.463318 
	C535.730408,388.945709 499.403168,389.065094 463.076447,388.973785 
	C427.424866,388.884186 403.383698,419.014587 403.790619,447.767853 
	C404.349457,487.255096 403.887909,526.756836 403.771393,566.726379 
	C346.518341,567.143188 289.357300,567.143860 232.196671,566.990479 
	C216.774017,566.949036 205.802216,559.415039 199.928940,545.332764 
	C197.948334,540.583923 197.303177,534.965759 197.309479,529.746460 
	C197.438705,422.935852 197.718781,316.125336 198.057953,209.315079 
	C198.115448,191.209915 213.850357,176.130020 232.496490,176.121384 
	C278.825531,176.099945 325.154877,176.107224 371.483704,176.239120 
	C426.299438,176.395187 481.114685,176.710556 535.930298,176.922958 
	C557.358887,177.005997 571.875244,191.480194 571.882874,213.026367 
	C571.903564,271.353577 571.874695,329.680817 571.961426,388.463318 
z"/>
<path fill="#B3AA3B" opacity="1.000000" stroke="none" 
	d="
M403.325256,618.097412 
	C403.831177,656.386047 404.066040,694.695801 403.853271,733.003052 
	C403.765656,748.782104 408.510986,762.552673 419.151611,774.007202 
	C430.109528,785.803345 443.658325,792.883606 460.072296,792.957214 
	C496.718903,793.121521 533.366699,793.025085 570.466309,793.103027 
	C570.841736,849.819519 570.737976,906.467773 570.715820,963.116089 
	C570.712341,971.989197 569.294067,980.390381 563.823975,987.649292 
	C556.726929,997.067261 547.172913,1001.779419 535.418213,1001.747498 
	C495.100677,1001.638000 454.783478,1001.378601 414.465942,1001.287842 
	C354.151825,1001.152039 293.837067,1000.953918 233.523590,1001.133728 
	C217.410431,1001.181763 206.154205,994.435120 199.286240,980.140442 
	C198.045609,977.558289 197.538101,974.566650 197.040955,971.703491 
	C196.674500,969.593079 196.829285,967.384033 196.831268,965.218994 
	C196.926178,861.418518 197.036621,757.617981 197.124710,653.817505 
	C197.137573,638.673279 203.737869,627.381104 217.482727,621.150513 
	C222.430573,618.907593 228.414886,618.104980 233.929947,618.090576 
	C288.412140,617.948547 342.895081,618.111450 397.377838,618.183472 
	C399.209808,618.185852 401.041870,618.140625 403.325256,618.097412 
z"/>
</svg>